<svg width="34" height="30" viewBox="0 0 34 30" fill="none" xmlns="http://www.w3.org/2000/svg">
<path d="M3.09091 15C1.39091 15 0 13.5 0 11.6667V3.33333C0 1.5 1.39091 0 3.09091 0H15.4545C17.1545 0 18.5455 1.5 18.5455 3.33333V11.6667C18.5455 13.5 17.1545 15 15.4545 15H12.3636V20L7.72727 15H3.09091ZM30.9091 25C32.6091 25 34 23.5 34 21.6667V13.3333C34 11.5 32.6091 10 30.9091 10H21.6364V11.6667C21.6364 15.3333 18.8545 18.3333 15.4545 18.3333V21.6667C15.4545 23.5 16.8455 25 18.5455 25H21.6364V30L26.2727 25H30.9091Z" fill="#C4E9F3"/>
</svg>
