<svg width="23" height="23" viewBox="0 0 23 23" fill="none" xmlns="http://www.w3.org/2000/svg">
<path d="M0 2.55556C0 1.87778 0.242321 1.22776 0.673654 0.748505C1.10499 0.269245 1.69 0 2.3 0H9.2V23H2.3C1.69 23 1.10499 22.7308 0.673654 22.2515C0.242321 21.7722 0 21.1222 0 20.4444V2.55556ZM13.8 0H20.7C21.31 0 21.895 0.269245 22.3263 0.748505C22.7577 1.22776 23 1.87778 23 2.55556V8.94444H13.8V0ZM13.8 14.0556H23V20.4444C23 21.1222 22.7577 21.7722 22.3263 22.2515C21.895 22.7308 21.31 23 20.7 23H13.8V14.0556Z" fill="#31D7F1"/>
</svg>
