<svg width="35" height="35" viewBox="0 0 35 35" fill="none" xmlns="http://www.w3.org/2000/svg">
<g clip-path="url(#clip0_30_19)">
<path fill-rule="evenodd" clip-rule="evenodd" d="M10.8152 4.37499C10.4137 5.29489 10.2071 6.28798 10.2085 7.29166C10.2085 8.06521 10.5158 8.80708 11.0628 9.35406C11.6097 9.90104 12.3516 10.2083 13.1252 10.2083H21.8752C22.6487 10.2083 23.3906 9.90104 23.9376 9.35406C24.4845 8.80708 24.7918 8.06521 24.7918 7.29166C24.7918 6.25479 24.576 5.26749 24.1852 4.37499H26.2502C27.0237 4.37499 27.7656 4.68229 28.3126 5.22927C28.8595 5.77625 29.1668 6.51811 29.1668 7.29166V29.1667C29.1668 29.9402 28.8595 30.6821 28.3126 31.2291C27.7656 31.776 27.0237 32.0833 26.2502 32.0833H8.75016C7.97661 32.0833 7.23475 31.776 6.68777 31.2291C6.14079 30.6821 5.8335 29.9402 5.8335 29.1667V7.29166C5.8335 6.51811 6.14079 5.77625 6.68777 5.22927C7.23475 4.68229 7.97661 4.37499 8.75016 4.37499H10.8152ZM17.5002 20.4167H13.1252C12.7384 20.4167 12.3675 20.5703 12.094 20.8438C11.8205 21.1173 11.6668 21.4882 11.6668 21.875C11.6668 22.2618 11.8205 22.6327 12.094 22.9062C12.3675 23.1797 12.7384 23.3333 13.1252 23.3333H17.5002C17.8869 23.3333 18.2579 23.1797 18.5314 22.9062C18.8049 22.6327 18.9585 22.2618 18.9585 21.875C18.9585 21.4882 18.8049 21.1173 18.5314 20.8438C18.2579 20.5703 17.8869 20.4167 17.5002 20.4167ZM21.8752 14.5833H13.1252C12.7535 14.5837 12.3959 14.7261 12.1257 14.9812C11.8554 15.2364 11.6927 15.5851 11.671 15.9562C11.6492 16.3273 11.7699 16.6926 12.0085 16.9777C12.247 17.2627 12.5854 17.4459 12.9545 17.4898L13.1252 17.5H21.8752C22.2619 17.5 22.6329 17.3463 22.9064 17.0729C23.1799 16.7994 23.3335 16.4284 23.3335 16.0417C23.3335 15.6549 23.1799 15.284 22.9064 15.0105C22.6329 14.737 22.2619 14.5833 21.8752 14.5833ZM17.5002 2.91666C18.1158 2.91575 18.7247 3.04524 19.2868 3.2966C19.8488 3.54795 20.3512 3.91548 20.761 4.37499C21.3852 5.07208 21.7877 5.96895 21.862 6.95916L21.8752 7.29166H13.1252C13.1252 6.23437 13.5 5.26458 14.1241 4.50916L14.2393 4.37499C15.0414 3.47958 16.2052 2.91666 17.5002 2.91666Z" fill="#C4E9F3"/>
</g>
<defs>
<clipPath id="clip0_30_19">
<rect width="35" height="35" fill="white"/>
</clipPath>
</defs>
</svg>
