<svg width="28" height="28" viewBox="0 0 28 28" fill="none" xmlns="http://www.w3.org/2000/svg">
<path d="M20.2222 0C20.6032 4.52348e-05 20.971 0.125939 21.2557 0.353801C21.5404 0.581664 21.7223 0.895648 21.7669 1.2362L21.7778 1.4V2.8H23.3333C24.5237 2.79994 25.669 3.20926 26.5351 3.9442C27.4011 4.67914 27.9224 5.68415 27.9922 6.7536L28 7V23.8C28.0001 24.8713 27.5453 25.9021 26.7287 26.6816C25.9121 27.461 24.7954 27.9302 23.6071 27.993L23.3333 28H4.66667C3.47634 28.0001 2.33098 27.5907 1.46493 26.8558C0.598878 26.1209 0.0776105 25.1159 0.00777796 24.0464L7.24958e-09 23.8V7C-6.63005e-05 5.9287 0.454728 4.89788 1.27133 4.11843C2.08793 3.33899 3.20461 2.86985 4.39289 2.807L4.66667 2.8H6.22222V1.4C6.22266 1.04317 6.37448 0.699955 6.64665 0.440484C6.91883 0.181014 7.29082 0.024871 7.68661 0.00395904C8.08241 -0.0169529 8.47215 0.0989444 8.77618 0.327971C9.08022 0.556997 9.27562 0.881866 9.32244 1.2362L9.33333 1.4V2.8H18.6667V1.4C18.6667 1.0287 18.8306 0.672601 19.1223 0.41005C19.414 0.1475 19.8097 0 20.2222 0ZM24.8889 9.8H3.11111V23.275C3.11111 24.262 3.71156 25.0754 4.48467 25.1874L4.66667 25.2H23.3333C24.1313 25.2 24.7893 24.458 24.878 23.499L24.8889 23.275V9.8Z" fill="#C4E9F3"/>
<path d="M14.3107 14.4516C14.6919 14.4517 15.0598 14.5817 15.3446 14.8169C15.6294 15.0522 15.8114 15.3764 15.856 15.728L15.8669 15.8971V20.2336C15.8664 20.602 15.7145 20.9563 15.4423 21.2242C15.17 21.4921 14.7979 21.6534 14.4019 21.675C14.006 21.6965 13.6161 21.5769 13.312 21.3404C13.0078 21.1039 12.8123 20.7685 12.7655 20.4027L12.7546 20.2336V17.3426C12.358 17.3422 11.9765 17.2011 11.6881 16.9482C11.3997 16.6953 11.2261 16.3496 11.2029 15.9818C11.1796 15.614 11.3084 15.2519 11.563 14.9694C11.8176 14.6868 12.1787 14.5053 12.5725 14.4617L12.7546 14.4516H14.3107Z" fill="#C4E9F3"/>
</svg>
