<svg width="22" height="22" viewBox="0 0 22 22" fill="none" xmlns="http://www.w3.org/2000/svg">
<path fill-rule="evenodd" clip-rule="evenodd" d="M9.43638 0.5C4.50138 0.5 0.5 4.5005 0.5 9.43637C0.5 14.3714 4.5005 18.3727 9.43638 18.3727C11.4981 18.3759 13.497 17.663 15.0915 16.3559L19.974 21.2384C20.1416 21.406 20.3688 21.5003 20.6059 21.5004C20.8429 21.5004 21.0703 21.4064 21.2379 21.2388C21.4056 21.0713 21.4998 20.844 21.4999 20.6069C21.5 20.3699 21.4059 20.1425 21.2384 19.9749L16.3559 15.0924C17.6632 13.4977 18.3761 11.4984 18.3728 9.43637C18.3719 4.50138 14.3705 0.5 9.43638 0.5ZM2.28763 9.43637C2.28763 7.54041 3.0408 5.7221 4.38145 4.38145C5.7221 3.04079 7.54041 2.28763 9.43638 2.28763C11.3323 2.28763 13.1507 3.04079 14.4913 4.38145C15.832 5.7221 16.5851 7.54041 16.5851 9.43637C16.5851 11.3323 15.832 13.1507 14.4913 14.4913C13.1507 15.832 11.3323 16.5851 9.43638 16.5851C7.54041 16.5851 5.7221 15.832 4.38145 14.4913C3.0408 13.1507 2.28763 11.3323 2.28763 9.43637Z" fill="#09152D"/>
</svg>
