<svg width="33" height="36" viewBox="0 0 33 36" fill="none" xmlns="http://www.w3.org/2000/svg">
<g filter="url(#filter0_d_79_46)">
<path d="M25.2458 5.98822C25.0567 5.89053 24.8728 5.78345 24.6945 5.66741C24.1761 5.32465 23.7008 4.92085 23.2788 4.46459C22.223 3.25661 21.8288 2.03108 21.6835 1.17302H21.6893C21.568 0.460795 21.6182 0 21.6257 0H16.817V18.5946C16.817 18.8442 16.817 19.0909 16.8065 19.3348C16.8065 19.3651 16.8036 19.3931 16.8018 19.4258C16.8018 19.4392 16.8018 19.4532 16.7989 19.4672V19.4777C16.7483 20.1449 16.5343 20.7893 16.1762 21.3545C15.8179 21.9196 15.3263 22.388 14.7446 22.7186C14.1382 23.0634 13.4524 23.2444 12.7548 23.2435C10.5144 23.2435 8.69859 21.4166 8.69859 19.1604C8.69859 16.9042 10.5144 15.0772 12.7548 15.0772C13.179 15.0769 13.6005 15.1436 14.0037 15.275L14.0096 10.3787C12.7854 10.2206 11.5418 10.3179 10.3571 10.6645C9.17246 11.011 8.07248 11.5993 7.12657 12.3923C6.29775 13.1124 5.60095 13.9717 5.06749 14.9314C4.86453 15.2814 4.09861 16.6877 4.0059 18.9702C3.94754 20.2658 4.3366 21.608 4.52214 22.1626V22.1743C4.6388 22.501 5.09082 23.6156 5.82756 24.5553C6.42162 25.3091 7.12345 25.9713 7.91053 26.5205V26.5088L7.92223 26.5205C10.2502 28.1024 12.8313 27.9986 12.8313 27.9986C13.2781 27.9805 14.7749 27.9986 16.4746 27.193C18.3599 26.3 19.4331 24.9695 19.4331 24.9695C20.1188 24.1745 20.664 23.2685 21.0454 22.2904C21.4805 21.1465 21.6257 19.7746 21.6257 19.2263V9.36142C21.6841 9.39645 22.461 9.91032 22.461 9.91032C22.461 9.91032 23.5804 10.6278 25.3268 11.095C26.5797 11.4275 28.2679 11.4975 28.2679 11.4975V6.72377C27.6764 6.78792 26.4753 6.60126 25.2458 5.98822Z" fill="white"/>
</g>
<defs>
<filter id="filter0_d_79_46" x="0" y="0" width="32.2681" height="36" filterUnits="userSpaceOnUse" color-interpolation-filters="sRGB">
<feFlood flood-opacity="0" result="BackgroundImageFix"/>
<feColorMatrix in="SourceAlpha" type="matrix" values="0 0 0 0 0 0 0 0 0 0 0 0 0 0 0 0 0 0 127 0" result="hardAlpha"/>
<feOffset dy="4"/>
<feGaussianBlur stdDeviation="2"/>
<feComposite in2="hardAlpha" operator="out"/>
<feColorMatrix type="matrix" values="0 0 0 0 0 0 0 0 0 0 0 0 0 0 0 0 0 0 0.25 0"/>
<feBlend mode="normal" in2="BackgroundImageFix" result="effect1_dropShadow_79_46"/>
<feBlend mode="normal" in="SourceGraphic" in2="effect1_dropShadow_79_46" result="shape"/>
</filter>
</defs>
</svg>
